<svg xmlns="http://www.w3.org/2000/svg" version="1.1" xmlns:xlink="http://www.w3.org/1999/xlink" xmlns:svgjs="http://svgjs.com/svgjs" width="1980" height="560" preserveAspectRatio="none" viewBox="0 0 1980 560"><g mask="url(&quot;#SvgjsMask1007&quot;)" fill="none"><path d="M 0,254 C 79.2,216.4 237.6,70.6 396,66 C 554.4,61.4 633.6,216.6 792,231 C 950.4,245.4 1029.6,131.6 1188,138 C 1346.4,144.4 1425.6,289.6 1584,263 C 1742.4,236.4 1900.8,56.6 1980,5L1980 560L0 560z" fill="rgba(47, 78, 107, 1)"></path><path d="M 0,289 C 132,323.4 396,447.4 660,461 C 924,474.6 1056,355.4 1320,357 C 1584,358.6 1848,446.6 1980,469L1980 560L0 560z" fill="rgba(111, 140, 105, 1)"></path></g><defs><mask id="SvgjsMask1007"><rect width="1980" height="560" fill="#ffffff"></rect></mask></defs></svg>