<svg xmlns="http://www.w3.org/2000/svg" version="1.1" xmlns:xlink="http://www.w3.org/1999/xlink" xmlns:svgjs="http://svgjs.com/svgjs" width="1980" height="400" preserveAspectRatio="none" viewBox="0 0 1980 400"><g mask="url(&quot;#SvgjsMask1102&quot;)" fill="none"><path d="M 0,154 C 66,131.4 198,43 330,41 C 462,39 528,134.8 660,144 C 792,153.2 858,94.6 990,87 C 1122,79.4 1188,106.8 1320,106 C 1452,105.2 1518,79.2 1650,83 C 1782,86.8 1914,116.6 1980,125L1980 400L0 400z" fill="rgba(111, 140, 105, 1)"></path><path d="M 0,340 C 44,328.2 132,276.4 220,281 C 308,285.6 352,374.8 440,363 C 528,351.2 572,220.4 660,222 C 748,223.6 792,357.6 880,371 C 968,384.4 1012,300 1100,289 C 1188,278 1232,319.2 1320,316 C 1408,312.8 1452,271.6 1540,273 C 1628,274.4 1672,324.8 1760,323 C 1848,321.2 1936,275.8 1980,264L1980 400L0 400z" fill="rgba(111, 140, 105, 1)"></path></g><defs><mask id="SvgjsMask1102"><rect width="1980" height="400" fill="#ffffff"></rect></mask></defs></svg>